<svg width="754" height="122" viewBox="0 0 754 122" fill="none" xmlns="http://www.w3.org/2000/svg">
<path d="M54.9 104.25C54.6 103.2 53.25 100.65 52.05 99C51.3 97.8 49.05 95.55 47.85 94.8C43.65 91.65 37.65 89.55 28.5 87.75C19.05 85.95 16.5 85.2 15.9 84C15.45 83.1 15.3 81.3 15.3 79.2C15.3 74.55 16.65 69.3 19.8 61.35C24.9 48.45 33.75 33.9 40.95 26.55C42.15 25.35 42.6 25.05 42.9 25.2C43.35 25.5 43.35 33.3 42.9 37.5C42.75 38.85 42.3 42 41.85 44.85C40.8 50.4 40.65 52.2 41.25 52.8C41.4 53.1 42.3 53.55 42.6 53.55C42.75 53.55 42.9 53.1 43.05 52.65C43.2 52.05 43.8 50.7 44.1 49.65C45.15 46.8 46.05 43.8 46.95 39.75C47.55 37.8 48 36.15 48 36C48.45 35.7 47.85 39.15 46.95 42.75C46.35 45.6 45.45 48.3 44.25 51C43.2 53.7 43.05 54.45 43.8 54C44.1 53.85 45.6 51.6 46.2 50.25C47.85 46.95 49.35 42 50.55 36.6C51.3 33 51.45 31.65 51.45 28.5C51.45 25.2 51.45 24.75 50.25 22.35C49.2 20.4 48.75 19.65 47.1 18C45.9 16.95 45.6 16.65 44.25 15.9C42.75 15.15 42.6 15.15 41.55 15.15C40.35 15 38.25 15.3 37.05 15.6C34.95 16.05 32.55 17.55 30 20.1C23.7 26.25 13.8 40.65 9 51C7.05 55.2 5.1 60.45 4.2 64.2C1.5 74.4 3 81.45 8.85 85.8C9.9 86.55 11.85 87.6 13.5 88.35C14.1 88.65 15.3 89.25 16.05 89.7C19.2 91.95 22.8 93.15 30.3 94.5C37.05 95.7 41.1 96.6 42 97.05C42.3 97.2 42.45 97.5 42.75 98.1C43.2 98.85 43.2 99.15 43.2 100.05C43.2 103.5 40.35 107.25 35.55 110.4C33.15 112.05 29.4 113.7 27.3 114.3C25.95 114.6 21.9 114.6 20.7 114.15C19.05 113.85 18.75 113.55 17.85 111.3C17.25 109.95 16.95 109.5 16.5 109.5C15.75 109.5 14.85 111.3 14.85 112.65C14.85 114.45 15.9 115.65 19.05 117C19.8 117.3 20.7 117.75 21 118.05C21.9 118.65 23.7 119.4 24.9 119.85C25.8 120.15 27.9 120.6 29.25 120.6C30.45 120.75 33.75 120.75 35.1 120.6C39.3 120.15 43.35 118.8 46.95 116.7C49.05 115.5 50.1 114.6 51.6 113.1C54.45 110.25 55.5 107.25 54.9 104.25ZM12.75 69.45C12.45 71.1 12 72.45 12 72.75C11.7 73.5 11.55 73.2 11.55 72.15C11.55 70.05 12.3 66.45 13.2 63.6C15.45 56.85 20.1 47.7 25.35 39.3C28.05 35.1 30.6 31.5 31.5 30.75L31.8 30.45L31.5 31.05C31.2 31.35 30.3 32.85 29.1 34.5C21.45 45.9 15.45 58.95 12.75 69.45ZM39.45 111.6C39 111.9 38.55 112.05 38.4 112.05C38.1 112.05 38.1 112.05 38.4 111.75C38.7 111.45 40.5 110.4 40.8 110.4C41.1 110.4 40.2 111 39.45 111.6ZM51 106.5C51 106.65 50.55 107.25 50.25 107.55C49.65 108.45 49.35 108.6 49.5 108C49.65 106.8 50.4 104.4 50.7 104.25C50.85 104.1 50.85 104.1 51.15 104.25C51.3 104.7 51.3 105.9 51 106.5ZM118.112 60.75C117.962 60.75 117.512 62.7 117.362 64.35C116.612 70.5 114.812 78.15 113.012 84C112.262 86.55 111.662 87.75 111.962 86.7C111.962 86.55 112.262 85.8 112.412 85.05C113.012 83.4 114.812 75.9 115.412 72.6C116.762 66.15 117.662 60.6 117.662 58.95V58.5L117.362 58.95C116.912 59.4 116.612 60.6 115.262 65.4C113.162 73.2 110.012 83.4 108.662 87.15C106.862 91.65 105.512 94.35 103.712 96.15C103.262 96.75 102.962 96.75 102.662 96.15C101.912 94.8 101.312 91.2 101.162 86.7C100.862 83.7 101.012 72.75 101.312 68.1C101.462 63.3 101.612 54.45 101.462 52.95C101.162 51.3 100.862 49.65 100.412 49.05C99.9621 48.45 99.0621 47.55 98.9121 47.55C98.7621 47.55 98.4621 47.4 98.3121 47.25C98.0121 46.8 97.8621 46.8 97.4121 46.8C97.1121 46.95 96.9621 46.95 96.8121 46.8C96.8121 46.5 96.5121 46.5 95.6121 46.8C94.5621 47.1 94.2621 47.4 93.6621 48.75C92.9121 50.4 92.1621 52.8 91.5621 55.95C91.2621 57.3 90.9621 58.8 90.9621 59.1C90.8121 59.85 89.4621 63.15 87.5121 67.35C86.9121 68.85 86.0121 70.8 85.5621 71.85C85.1121 72.9 84.2121 75.3 83.3121 76.95C82.5621 78.75 81.6621 80.7 81.3621 81.45C80.7621 82.8 76.7121 90.9 75.6621 92.7C74.7621 94.2 71.6121 98.55 71.0121 99C70.4121 99.45 70.2621 99.45 69.9621 98.25C69.5121 95.55 69.2121 86.25 69.3621 79.95C69.5121 77.7 69.6621 75.45 69.6621 75.15C69.6621 74.85 69.9621 71.7 70.1121 68.1C70.4121 64.5 70.5621 60.6 70.7121 59.25C70.8621 57.9 70.8621 55.8 70.8621 54.3C70.8621 50.7 70.5621 49.05 69.5121 47.4C68.6121 46.2 68.1621 45.75 67.8621 45.9C67.5621 45.9 67.4121 45.9 67.1121 45.45C66.8121 44.85 66.2121 44.55 65.7621 44.7C65.6121 44.7 65.4621 44.7 65.3121 44.55C65.1621 44.25 65.0121 44.25 64.5621 44.25C63.5121 44.4 62.3121 45.15 62.0121 45.6C61.2621 46.8 59.0121 54.6 58.4121 58.2C56.9121 67.65 56.7621 69.3 56.7621 76.2C56.7621 81 56.9121 83.7 57.5121 87.6C58.7121 94.65 60.6621 99.3 63.2121 101.85C64.1121 102.75 64.8621 103.05 67.1121 103.8C68.0121 104.1 69.3621 104.55 69.9621 104.85C70.7121 105.15 71.3121 105.45 71.3121 105.45C71.4621 105.45 72.0621 105.45 72.6621 105.45C74.6121 105.45 75.6621 104.55 77.6121 101.7C80.1621 97.95 85.7121 85.95 88.4121 78.75C88.8621 77.1 89.3121 76.35 89.4621 76.2C89.7621 76.2 89.7621 76.5 89.9121 79.5C90.3621 86.1 91.8621 91.35 94.2621 95.1C96.0621 97.8 98.0121 99.15 100.712 99.6C101.162 99.6 102.062 99.9 102.962 100.2C104.162 100.65 104.462 100.65 105.362 100.65C107.762 100.5 109.412 98.85 110.912 95.1C112.862 90.15 115.262 81.45 116.312 75.6C117.212 70.5 118.412 60.75 118.112 60.75ZM67.2621 58.35C66.0621 70.05 65.3121 81.75 65.4621 86.55C65.4621 87.75 65.4621 88.8 65.4621 88.8C65.1621 88.8 65.0121 87.15 64.8621 81.3C64.8621 76.8 64.8621 75.3 65.1621 70.8C65.3121 67.95 65.6121 64.2 65.7621 62.4C66.2121 57 67.1121 49.35 67.2621 49.2C67.4121 48.75 67.7121 48.75 67.8621 48.9C68.0121 49.35 67.7121 53.85 67.2621 58.35ZM81.0621 90.9C80.9121 91.35 80.4621 91.95 80.3121 92.4C79.8621 93.15 79.5621 93.45 79.5621 93.15C79.5621 93 80.7621 90.75 81.0621 90.45L81.3621 90.15L81.0621 90.9ZM88.5621 73.8C87.0621 77.7 86.1621 80.1 84.8121 82.8C83.9121 84.9 83.3121 85.8 83.3121 85.5C83.3121 85.35 83.7621 84.45 84.2121 83.4C84.6621 82.5 85.1121 81.3 85.2621 81C85.2621 80.7 85.8621 79.2 86.4621 77.7C87.0621 76.2 87.9621 74.1 88.4121 72.75C89.1621 70.5 89.3121 70.2 89.6121 70.2C89.7621 70.2 89.6121 70.95 88.5621 73.8ZM98.6121 58.8C97.8621 69.6 97.5621 75.3 97.7121 81.15C97.7121 84.15 97.7121 85.65 97.7121 85.65C97.4121 85.65 97.2621 84.3 96.9621 81.9C96.8121 79.05 96.8121 69.3 97.1121 65.25C97.5621 59.1 98.3121 50.25 98.4621 49.8C98.6121 49.5 98.6121 49.5 98.7621 49.8C99.0621 50.1 99.0621 53.1 98.6121 58.8ZM159.544 51.9C161.044 50.55 161.044 50.4 160.744 50.4C159.394 50.25 151.744 55.8 146.194 60.9C141.394 65.25 136.744 70.2 131.644 76.35C131.194 76.8 130.744 77.1 130.594 77.1C130.594 77.1 129.694 76.8 128.794 76.5C127.294 76.05 125.344 75.6 119.494 74.25C117.094 73.65 116.344 73.35 116.044 73.05C115.894 72.75 116.494 71.1 117.394 69.45C118.894 66.9 120.694 64.8 124.144 61.5C127.744 57.75 130.444 55.5 133.444 53.1C135.544 51.6 138.244 49.95 138.844 49.8C138.994 49.65 139.294 49.8 139.594 50.1C140.344 51 140.794 50.55 140.794 49.05C140.494 47.25 138.994 45 137.344 44.55C136.144 44.25 134.344 44.1 133.144 44.4C128.944 45.3 121.444 49.65 116.044 54.15C114.394 55.65 111.094 59.1 110.044 60.45C107.644 63.6 106.444 66.75 106.894 69C107.194 71.1 108.394 72.9 110.944 74.7C111.694 75.3 112.744 76.35 113.344 77.1C115.594 79.5 118.294 80.7 123.994 81.6C125.344 81.9 126.394 82.05 126.394 82.2C126.694 82.35 126.544 82.65 124.894 84.6C123.544 86.55 119.344 92.4 117.994 94.5C114.994 98.85 113.344 103.05 113.044 105.75C113.044 106.65 113.044 106.8 113.344 107.55C113.644 108.3 114.544 109.05 115.744 109.8C116.194 110.1 117.094 110.7 117.544 111.15C118.744 112.05 118.894 112.2 119.944 112.35C121.144 112.65 121.744 112.65 122.944 112.5C126.844 111.75 132.544 108.3 137.044 103.8C139.744 101.1 141.544 98.4 142.444 95.7C142.894 94.5 142.894 94.05 143.044 92.7C143.044 91.2 143.044 90.75 142.744 89.85C141.844 86.1 139.744 82.95 136.744 80.7C136.144 80.25 135.694 79.8 135.694 79.65C135.694 79.65 136.144 78.9 136.744 78.3C137.344 77.55 138.394 76.2 139.144 75.45C139.744 74.55 141.094 72.9 142.144 71.7C143.194 70.5 144.844 68.55 145.894 67.35C149.194 63.3 155.194 56.85 158.494 53.85C159.544 52.8 160.294 52.05 160.294 51.9C160.294 51.9 159.694 52.2 159.094 52.65C158.494 52.95 158.044 53.25 158.044 53.25C157.894 53.25 158.644 52.65 159.544 51.9ZM114.244 68.55C113.494 69.15 113.794 67.95 114.694 66.15C115.744 63.75 119.944 59.25 123.994 56.1C125.494 54.75 127.444 53.4 127.444 53.55C127.594 53.55 126.994 54.15 124.294 56.55C120.394 60 117.094 63.9 114.994 67.35C114.694 67.95 114.394 68.55 114.244 68.55ZM118.144 103.5C117.844 104.25 117.544 105 117.544 105.15C117.094 105.45 117.244 104.4 117.544 103.2C118.594 100.05 121.144 95.55 125.794 89.25C129.394 84.15 130.294 83.1 130.444 83.1C130.594 83.1 130.744 83.1 130.744 83.1C130.744 83.25 129.994 84.45 128.944 85.8C122.944 93.75 120.094 98.55 118.144 103.5ZM139.144 95.4C139.594 94.65 140.044 93.9 140.194 93.75C140.494 93.45 140.494 93.9 140.344 94.8C139.744 96.45 138.394 98.4 136.894 100.05C136.144 100.95 135.394 101.4 135.394 101.25C135.394 101.1 135.694 100.8 135.844 100.5C137.044 98.85 138.394 96.6 139.144 95.4ZM135.994 85.5C136.294 86.55 136.294 88.2 135.994 89.55C135.844 90.15 135.394 91.5 134.944 92.4C132.394 97.5 126.994 102.9 120.844 106.35C119.344 107.25 118.894 107.25 118.894 106.65C118.894 106.2 120.094 103.2 120.694 101.7C121.444 99.9 123.544 96.3 125.344 93.6C126.844 91.2 131.794 84.45 132.394 83.85L132.694 83.4L133.894 83.85C135.544 84.45 135.844 84.6 135.994 85.5ZM152.194 58.65C150.394 60.6 146.644 64.5 144.844 66.45C144.094 67.35 143.044 68.55 142.444 69.15C141.844 69.75 139.894 72.15 137.944 74.55C135.994 76.8 134.344 78.75 134.344 78.75C133.894 78.75 134.344 78.15 136.294 75.75C138.844 72.6 139.594 71.7 140.944 70.2C141.544 69.6 143.044 67.95 144.094 66.75C146.494 64.05 153.394 57 153.544 57.15C153.544 57.3 152.944 57.9 152.194 58.65ZM155.044 55.95C154.744 56.1 154.594 56.25 154.594 56.25C154.594 56.25 154.744 56.1 154.894 55.95C155.044 55.8 155.194 55.65 155.194 55.65C155.344 55.65 155.194 55.8 155.044 55.95ZM180.101 70.05C178.901 73.8 177.701 76.8 176.051 80.4C175.001 82.8 173.651 85.5 173.651 85.05C173.651 85.05 173.801 84.45 174.101 83.85C176.201 79.5 177.101 77.1 179.351 70.95C180.101 68.7 181.001 65.85 181.001 65.4C181.001 65.25 180.401 65.85 179.951 66.45C179.801 66.75 178.601 69 177.551 71.25C173.201 79.8 168.251 88.35 165.251 92.4C164.351 93.6 162.101 96 161.801 96C161.651 96 161.501 95.85 161.351 93.9C161.201 92.55 161.201 91.2 161.201 87.15C161.201 84.3 161.351 81.15 161.351 80.25C161.951 73.8 163.001 64.65 163.751 60.3C163.901 58.8 164.201 56.7 164.351 55.5C164.651 53.1 165.251 49.5 166.001 45.45C166.151 44.1 166.451 42.15 166.601 41.4C166.751 40.35 166.901 39.75 167.051 39.6C167.201 39.45 168.251 39 169.751 38.55C171.101 38.25 173.351 37.5 174.851 36.9C177.551 35.85 179.051 35.55 179.201 35.85C179.351 36 179.351 36 179.501 36C179.651 36 179.201 34.8 178.601 34.35C177.551 33.3 176.351 32.85 173.501 32.85C172.151 32.7 170.651 32.85 169.751 32.85C168.401 33 168.101 33 167.951 32.85C167.801 32.7 167.801 32.4 168.101 30.3C168.701 26.55 168.701 21.3 168.851 18.15C168.851 13.5 168.401 12.3 166.601 10.2C166.301 9.9 165.851 9.59999 165.851 9.59999C165.701 9.59999 165.401 9.44999 165.101 9.15C164.651 8.55 164.501 8.55 163.901 8.55C163.601 8.55 163.301 8.55 163.301 8.4C163.301 8.09999 162.701 8.09999 161.651 8.4C161.201 8.55 160.601 8.69999 160.451 8.84999C160.301 9 160.151 9.75 159.701 12C159.551 13.65 158.801 17.1 158.351 19.65C157.901 22.2 157.151 29.55 156.851 31.65C156.401 33.75 156.101 35.55 155.951 35.55C155.951 35.7 155.351 36 154.151 36.3C151.601 36.9 145.151 39 144.851 39.3C144.251 39.75 144.401 40.05 145.451 41.25C145.901 41.85 146.351 42.45 146.351 42.45C146.351 42.75 147.101 43.2 147.701 43.35C148.601 43.65 150.851 43.65 152.801 43.35C154.451 43.05 154.751 43.05 154.601 43.65C154.301 45 152.801 54.3 152.351 57.45C152.051 59.7 151.451 66.6 151.151 69.3C151.001 72.3 151.001 82.05 151.151 84.3C151.751 89.1 152.651 92.7 153.851 95.25C155.051 97.65 156.401 98.7 158.351 99.3C158.801 99.45 159.851 99.9 160.451 100.05C161.051 100.35 161.801 100.65 162.101 100.8C162.851 101.1 164.201 100.95 165.101 100.5C166.451 99.75 167.951 98.1 170.051 94.95C173.801 89.4 176.951 82.65 179.051 75.75C179.651 74.1 181.151 68.4 181.301 67.2C181.451 66.45 180.701 67.95 180.101 70.05ZM163.901 30.9C164.651 26.1 165.101 18.75 165.401 16.2C165.551 14.7 165.701 13.5 165.701 13.35C166.301 12.9 166.301 16.2 165.701 20.85C165.251 25.5 164.501 33.45 164.351 33.75C164.051 33.9 163.601 33.9 163.451 33.75C163.451 33.6 163.601 32.4 163.901 30.9ZM158.351 79.95C158.201 84.15 158.051 85.35 157.901 84.9C157.451 84 157.601 75.75 158.201 70.5C158.651 65.1 159.701 56.4 160.601 51C161.801 42.9 162.251 40.95 162.401 40.8C162.701 40.65 163.151 40.65 163.301 40.8C163.301 40.95 163.001 43.05 162.551 45.45C160.151 59.85 158.801 71.25 158.351 79.95ZM227.168 69.6C227.018 69.6 227.018 69.75 226.868 70.05C226.718 71.25 226.568 71.1 226.568 69.6C226.568 68.7 226.418 68.1 226.418 68.1C226.118 68.1 225.818 69 224.918 72.3C222.368 82.5 217.868 94.8 216.818 94.8C216.518 94.8 216.518 94.8 216.068 92.85C214.868 87.6 214.718 84.75 215.018 76.65C215.168 73.35 215.318 68.7 215.468 66.15C216.218 54.3 216.218 49.5 215.318 47.1C215.168 46.65 214.718 46.05 214.268 45.6C213.518 44.85 213.368 44.7 212.918 44.85C212.618 44.85 212.618 44.85 212.318 44.4C212.018 43.95 211.568 43.65 211.118 43.95C210.968 44.1 210.818 44.1 210.668 43.95C210.518 43.5 210.068 43.65 209.018 44.1C207.818 44.7 207.518 45.15 206.768 46.65C206.318 47.55 205.268 51 205.268 51.3C205.268 51.3 205.118 51.3 204.968 51.3C204.818 51.3 204.218 50.85 203.618 50.25C200.468 47.4 196.568 45.45 192.518 45C190.568 44.7 189.368 45 187.118 45.9C184.868 46.95 183.368 47.85 182.018 49.2C177.818 53.55 175.268 60 174.218 69.6C173.318 76.95 173.618 83.25 174.968 88.65C176.168 93.15 177.368 95.7 179.768 98.55C182.318 101.7 182.468 101.7 185.918 101.85C187.268 102 188.618 102.15 188.768 102.15C189.518 102.45 190.118 102.3 191.168 102C192.518 101.55 193.418 100.95 194.618 99.15C196.118 96.75 197.018 94.5 200.018 85.95C201.068 83.1 201.818 80.7 201.968 80.55C202.118 80.25 202.418 80.4 202.568 81C203.018 84.3 203.768 86.85 205.118 89.85C206.918 94.05 209.468 97.35 211.718 98.55C212.318 98.85 213.668 99.15 214.868 99.3C215.318 99.45 216.068 99.6 216.668 99.75C218.318 100.2 219.368 99.9 220.418 98.85C221.168 97.95 221.768 96.75 223.118 92.55C225.818 84.75 226.718 80.4 227.168 74.4C227.318 71.4 227.318 69.75 227.168 69.6ZM184.418 63.15C183.818 66.45 183.218 69.45 182.918 73.35C182.618 75.6 182.468 77.55 182.468 81.75C182.318 85.95 182.318 87 182.168 86.85C181.568 85.8 181.118 78.9 181.568 75C182.018 70.5 182.918 65.55 183.968 62.25C184.568 60.3 185.018 59.4 185.018 60.15C185.018 60.3 184.868 61.65 184.418 63.15ZM185.318 50.55C184.868 50.7 184.718 50.85 184.568 50.85C184.418 50.85 184.568 50.4 185.018 49.95C185.468 49.35 185.918 49.05 186.068 49.2C186.368 49.5 185.918 50.1 185.318 50.55ZM201.518 67.5C198.368 76.65 196.868 80.4 194.918 85.05C192.818 90.15 189.818 95.7 188.618 97.05C188.018 97.65 187.868 97.5 187.268 95.25C185.768 90 185.618 82.35 186.518 74.55C187.718 65.4 189.368 59.55 192.368 55.05C193.418 53.4 195.518 51.3 195.968 51.3C196.418 51.3 198.218 52.8 199.268 54.15C200.168 55.35 202.118 58.35 202.868 60C203.618 61.5 203.468 61.95 201.518 67.5ZM213.068 49.2C213.068 50.7 212.768 54.15 212.468 57.6C211.418 69.45 211.118 75 211.268 81.3C211.268 83.7 211.268 85.8 211.268 85.8C210.968 86.4 210.518 83.85 210.218 80.4C210.068 78.15 210.068 74.1 210.518 68.85C210.668 65.1 210.668 64.8 211.568 56.1C211.868 52.65 212.168 49.35 212.168 48.45C212.318 46.95 212.468 46.65 212.768 46.8C213.068 46.8 213.068 46.95 213.068 49.2ZM261.586 57C261.286 57.3 261.286 57.15 261.286 55.95V54.6L260.986 55.05C260.536 55.65 260.236 56.25 258.886 59.85C256.336 66.75 254.386 71.4 250.336 79.35C245.686 88.5 242.686 93.3 239.986 96C238.486 97.35 237.586 97.8 237.136 97.5C236.686 97.2 236.086 95.4 235.636 93.45C235.486 91.95 235.336 90.6 235.486 83.55C235.486 79.05 235.636 72 235.786 67.95C236.386 52.65 236.236 55.65 235.636 52.05C235.186 50.25 234.286 48.45 233.236 47.55C232.786 47.1 232.186 46.5 231.886 46.35C231.586 46.05 231.136 45.9 230.836 45.9C230.686 45.9 230.236 45.75 230.086 45.6C229.786 45.45 229.636 45.45 228.886 45.6C227.236 46.05 226.936 46.65 226.336 50.1C224.986 58.35 224.236 59.4 223.936 72.15C223.636 83.55 223.936 87.45 225.136 91.65C226.636 96.6 229.936 99.75 234.136 100.35C234.886 100.35 236.236 100.65 236.986 100.8C237.736 101.1 238.636 101.25 238.936 101.25C240.136 101.4 242.236 100.95 243.586 100.05C246.286 98.25 248.386 95.1 252.586 86.7C256.036 79.8 258.136 74.25 259.936 67.05C260.836 63.3 261.886 58.35 261.886 57.15C261.886 56.7 261.886 56.7 261.586 57ZM232.636 60C232.186 68.4 232.036 77.1 232.036 83.85C232.186 87.6 232.036 90.6 232.036 90.75C231.886 90.9 231.586 90.15 231.286 88.5C230.986 86.55 230.986 76.05 231.286 69.75C231.736 61.5 232.486 55.95 232.486 54.9C232.636 54.3 232.786 53.7 232.786 53.7C233.236 53.7 233.236 49.95 232.636 60ZM227.986 31.95C226.786 33.15 226.186 36 226.786 38.1C227.386 40.35 227.386 40.35 230.986 41.7C231.736 41.85 232.486 42.15 232.636 42.3C232.786 42.45 233.236 42.45 233.836 42.45C235.486 42.3 236.536 41.1 237.436 38.4C238.486 35.4 238.036 33.6 235.786 31.2C234.286 29.85 233.086 29.1 231.436 28.8C230.236 28.5 229.186 28.65 228.136 29.1C227.386 29.55 227.386 30.3 227.986 30.6C228.586 30.9 228.586 31.35 227.986 31.95ZM235.186 36.3C235.486 34.95 235.636 34.65 235.936 34.65C236.386 34.65 236.386 35.7 235.786 37.05C235.486 37.95 235.036 38.4 234.886 38.25C234.886 38.25 235.036 37.35 235.186 36.3ZM229.786 33.15C230.086 32.7 230.086 32.7 230.086 33.3C230.086 33.6 230.086 34.05 229.936 34.2C229.786 34.5 229.786 34.5 229.636 34.05C229.636 33.75 229.636 33.3 229.786 33.15ZM315.649 64.8C315.799 64.35 315.799 64.35 315.049 65.1C314.749 65.55 313.699 67.2 312.949 68.85C312.049 70.5 310.849 72.6 310.249 73.8C307.999 78 305.599 82.65 304.249 85.05C301.249 90.75 298.249 95.25 297.649 95.25C297.199 95.25 297.199 94.2 298.699 84.15C299.149 81.45 299.749 77.25 300.199 74.7C301.549 66.6 302.149 60.9 302.149 55.5C302.149 51.75 301.849 50.4 300.799 48C299.149 45 296.899 43.2 294.649 43.2C289.999 43.2 286.099 46.35 280.399 54.45C275.449 61.65 271.699 69 269.149 76.65C268.099 79.95 267.799 80.7 267.499 80.7C267.199 80.7 267.649 71.85 268.249 66.45C268.999 59.1 269.599 51 269.599 49.05C269.449 47.25 269.149 46.65 268.249 45.6C267.649 45 267.349 44.85 267.199 44.85C266.899 45 266.749 44.85 266.599 44.4C266.449 44.1 266.299 43.95 265.849 43.95C265.549 43.95 265.249 43.95 264.949 43.8C264.649 43.65 263.299 43.95 262.699 44.4C261.949 44.85 260.749 48.45 259.699 53.7C258.049 60.9 257.599 68.4 257.899 76.35C258.499 87.75 259.549 92.85 261.799 96.75C263.149 99.15 264.349 100.05 266.449 100.8C268.099 101.4 268.249 101.4 267.799 100.65C267.199 99.6 267.799 96.15 270.199 87.15C271.849 81.45 272.599 78.9 274.549 74.1C277.099 67.65 278.749 64.5 282.799 58.35C285.499 54.15 285.799 53.7 287.749 51.3C289.549 49.35 290.599 48.45 292.249 47.4C293.299 46.8 294.049 46.65 294.199 47.1C294.349 47.7 293.599 51.6 291.349 62.55C288.649 74.7 287.749 80.7 287.599 87C287.449 91.8 287.899 94.35 289.249 96.45C289.999 97.8 290.899 98.4 292.699 99.15C293.599 99.45 294.799 100.05 295.399 100.35C297.949 101.7 298.999 101.4 300.949 99.45C302.899 97.35 303.799 96 307.849 87.9C309.199 85.5 310.549 82.65 310.849 81.6C311.299 80.55 312.199 78.45 312.799 76.8C313.849 74.25 315.499 68.85 315.499 68.4C315.499 68.25 315.199 68.55 314.899 69.15C314.599 69.75 314.299 70.05 314.299 70.05C314.299 69.9 314.449 68.85 314.899 67.65C315.199 66.3 315.649 65.1 315.649 64.8ZM266.599 54.75C265.999 60 265.549 64.65 265.099 69C264.949 71.1 264.799 75.3 264.799 80.4C264.649 84.9 264.649 88.5 264.499 88.2C264.049 87 263.899 84.45 263.899 77.7C263.899 69.15 264.199 66.15 265.549 54.45C266.449 47.85 266.449 47.85 266.749 47.85C267.499 47.55 267.499 48 266.599 54.75ZM275.449 69.15C272.599 75.45 270.649 81.6 268.699 89.55C268.399 90.6 268.099 91.65 267.949 91.8C267.499 92.4 267.499 91.5 268.099 88.95C269.899 81.9 271.699 76.5 273.649 72C274.699 69.45 276.649 65.55 276.799 65.7C276.949 65.7 276.199 67.35 275.449 69.15ZM295.099 87.6C294.799 90.45 294.349 92.85 294.349 92.85C293.299 93.9 294.349 83.1 296.449 71.7C297.649 65.1 298.549 59.25 298.999 57.15C299.149 56.1 299.299 55.05 299.299 55.05C299.599 54.9 299.599 56.1 299.599 57.6C299.299 60.3 298.849 63.9 297.499 71.55C295.999 80.7 295.849 81.3 295.099 87.6ZM360.762 69.6C360.612 69.6 360.612 69.75 360.462 70.05C360.312 71.25 360.162 71.1 360.162 69.6C360.162 68.7 360.012 68.1 360.012 68.1C359.712 68.1 359.412 69 358.512 72.3C355.962 82.5 351.462 94.8 350.412 94.8C350.112 94.8 350.112 94.8 349.662 92.85C348.462 87.6 348.312 84.75 348.612 76.65C348.762 73.35 348.912 68.7 349.062 66.15C349.812 54.3 349.812 49.5 348.912 47.1C348.762 46.65 348.312 46.05 347.862 45.6C347.112 44.85 346.962 44.7 346.512 44.85C346.212 44.85 346.212 44.85 345.912 44.4C345.612 43.95 345.162 43.65 344.712 43.95C344.562 44.1 344.412 44.1 344.262 43.95C344.112 43.5 343.662 43.65 342.612 44.1C341.412 44.7 341.112 45.15 340.362 46.65C339.912 47.55 338.862 51 338.862 51.3C338.862 51.3 338.712 51.3 338.562 51.3C338.412 51.3 337.812 50.85 337.212 50.25C334.062 47.4 330.162 45.45 326.112 45C324.162 44.7 322.962 45 320.712 45.9C318.462 46.95 316.962 47.85 315.612 49.2C311.412 53.55 308.862 60 307.812 69.6C306.912 76.95 307.212 83.25 308.562 88.65C309.762 93.15 310.962 95.7 313.362 98.55C315.912 101.7 316.062 101.7 319.512 101.85C320.862 102 322.212 102.15 322.362 102.15C323.112 102.45 323.712 102.3 324.762 102C326.112 101.55 327.012 100.95 328.212 99.15C329.712 96.75 330.612 94.5 333.612 85.95C334.662 83.1 335.412 80.7 335.562 80.55C335.712 80.25 336.012 80.4 336.162 81C336.612 84.3 337.362 86.85 338.712 89.85C340.512 94.05 343.062 97.35 345.312 98.55C345.912 98.85 347.262 99.15 348.462 99.3C348.912 99.45 349.662 99.6 350.262 99.75C351.912 100.2 352.962 99.9 354.012 98.85C354.762 97.95 355.362 96.75 356.712 92.55C359.412 84.75 360.312 80.4 360.762 74.4C360.912 71.4 360.912 69.75 360.762 69.6ZM318.012 63.15C317.412 66.45 316.812 69.45 316.512 73.35C316.212 75.6 316.062 77.55 316.062 81.75C315.912 85.95 315.912 87 315.762 86.85C315.162 85.8 314.712 78.9 315.162 75C315.612 70.5 316.512 65.55 317.562 62.25C318.162 60.3 318.612 59.4 318.612 60.15C318.612 60.3 318.462 61.65 318.012 63.15ZM318.912 50.55C318.462 50.7 318.312 50.85 318.162 50.85C318.012 50.85 318.162 50.4 318.612 49.95C319.062 49.35 319.512 49.05 319.662 49.2C319.962 49.5 319.512 50.1 318.912 50.55ZM335.112 67.5C331.962 76.65 330.462 80.4 328.512 85.05C326.412 90.15 323.412 95.7 322.212 97.05C321.612 97.65 321.462 97.5 320.862 95.25C319.362 90 319.212 82.35 320.112 74.55C321.312 65.4 322.962 59.55 325.962 55.05C327.012 53.4 329.112 51.3 329.562 51.3C330.012 51.3 331.812 52.8 332.862 54.15C333.762 55.35 335.712 58.35 336.462 60C337.212 61.5 337.062 61.95 335.112 67.5ZM346.662 49.2C346.662 50.7 346.362 54.15 346.062 57.6C345.012 69.45 344.712 75 344.862 81.3C344.862 83.7 344.862 85.8 344.862 85.8C344.562 86.4 344.112 83.85 343.812 80.4C343.662 78.15 343.662 74.1 344.112 68.85C344.262 65.1 344.262 64.8 345.162 56.1C345.462 52.65 345.762 49.35 345.762 48.45C345.912 46.95 346.062 46.65 346.362 46.8C346.662 46.8 346.662 46.95 346.662 49.2ZM394.13 69.15C399.53 67.2 404.18 64.35 408.98 59.7C415.43 53.55 419.63 46.2 421.28 38.4C421.73 36.45 421.88 31.8 421.43 30.15C420.53 26.25 419.03 23.7 416.18 20.55C413.33 17.7 409.28 15 405.08 13.5C400.58 11.85 394.73 10.95 390.23 11.4C379.88 12.15 371.03 16.95 367.13 24C365.33 27.15 363.53 32.4 362.63 37.5C362.33 39.6 362.18 43.5 362.48 45.45C363.08 50.25 365.48 54.45 369.08 56.7C370.58 57.75 371.18 57.9 370.58 57.15C370.13 56.25 369.38 54.75 369.23 53.85C368.93 52.65 368.93 49.35 369.23 47.1C369.98 40.8 372.23 33.45 374.48 29.85C376.73 26.4 380.18 22.8 383.33 20.85C386.93 18.6 390.53 17.4 394.73 16.8C396.83 16.5 401.48 16.65 403.13 16.95C404.93 17.25 407.18 18.6 409.13 20.4C414.68 25.65 415.43 33.6 411.53 42.9C410.33 45.9 408.08 49.35 405.68 52.5C404.18 54.3 399.68 58.95 397.73 60.6C393.53 63.9 390.53 65.55 386.93 66.3C386.03 66.6 385.73 66.6 385.73 66.45C385.28 66.15 386.33 58.35 387.53 52.95C388.28 49.05 389.48 44.25 389.78 43.8C389.93 43.5 390.08 43.5 390.38 43.5C390.83 43.65 390.98 43.35 391.13 41.85C391.13 41.25 391.28 40.5 391.28 40.35C391.43 39.9 390.23 38.7 389.48 38.4C389.18 38.25 388.73 38.1 388.58 37.95C388.28 37.65 387.23 37.35 386.18 37.35C385.43 37.35 383.63 38.4 382.73 39.15C381.23 40.65 379.73 43.8 377.93 48.75C376.88 51.75 375.38 58.35 374.63 62.85C374.48 64.5 374.33 64.65 373.73 65.1C372.83 65.55 372.23 66.15 372.23 66.6C372.23 66.9 372.68 67.5 373.43 67.95L373.88 68.25L373.58 70.95C372.98 76.65 372.98 77.25 372.98 82.95C372.98 90.15 373.13 92.7 374.18 98.55C374.78 102.9 375.83 106.35 377.33 109.65C379.28 114.45 381.83 117.75 384.68 119.55C386.63 120.9 387.83 121.2 391.13 121.5C392.18 121.5 393.53 121.65 393.98 121.8C397.73 122.55 401.93 120.3 404.78 116.1C406.88 113.1 408.53 108.45 409.28 103.5C409.58 101.25 409.73 96.6 409.43 94.5C408.98 90.75 408.08 87.9 406.73 84.9C404.03 79.35 400.28 75.3 394.28 71.25C393.23 70.65 392.48 69.9 392.48 69.9C392.48 69.75 393.23 69.45 394.13 69.15ZM417.68 40.5C418.13 38.55 418.43 37.05 418.73 34.35C418.88 33 419.03 31.8 419.18 31.65C419.33 31.5 419.48 32.55 419.48 34.05C419.48 36 419.03 38.55 418.13 40.8C417.68 41.85 417.38 42.45 417.38 42C417.38 41.85 417.53 41.25 417.68 40.5ZM369.38 34.95C368.18 39.15 367.58 42.3 367.43 46.5C367.28 47.85 367.13 49.05 367.13 49.2C367.13 49.2 366.98 49.05 366.83 48.75C366.53 48 366.68 43.05 366.98 41.4C367.73 37.8 369.23 33 369.68 32.7C369.98 32.55 369.83 32.85 369.38 34.95ZM374.18 19.65C372.98 20.85 372.68 21.15 372.68 20.85C372.68 20.55 374.03 19.05 374.63 18.75C375.53 18.3 375.38 18.75 374.18 19.65ZM404.63 56.25C404.93 55.8 406.73 54 406.73 54C406.88 54.15 406.58 54.6 406.13 55.05C405.38 55.95 404.33 56.85 404.63 56.25ZM383.63 106.35C383.48 106.35 383.33 106.05 383.18 105.75C382.28 103.5 381.08 97.5 380.48 91.8C380.18 88.2 380.18 77.7 380.48 73.5C380.78 70.2 380.93 69.75 381.23 69.9C381.53 69.9 381.53 70.35 381.23 75.3C380.93 84 381.53 93.9 383.03 102.45C383.33 103.95 383.48 105.45 383.63 105.75C383.63 106.05 383.63 106.35 383.63 106.35ZM383.63 54.45C383.33 56.25 382.58 61.05 382.13 64.2C382.13 64.95 381.98 65.1 381.83 65.1C381.68 65.25 381.53 65.1 381.53 64.95C381.23 64.2 383.78 51 384.08 51C384.23 51 384.08 51.45 383.63 54.45ZM405.98 88.95C406.28 88.95 407.03 92.1 407.33 94.5C407.63 97.5 407.33 101.7 406.58 103.95C406.43 104.7 406.13 104.55 406.28 103.65C406.43 101.7 406.58 99.75 406.58 98.4C406.58 96.6 406.28 92.7 405.98 90.9C405.68 89.4 405.68 88.95 405.98 88.95ZM401.33 91.35C401.78 93.75 401.78 95.25 401.78 98.4C401.63 101.7 401.48 103.5 400.58 106.65C399.23 111.9 396.53 116.55 394.13 117.75C392.78 118.5 392.48 118.35 391.58 117C387.38 111.15 385.13 99.75 384.83 83.55C384.68 78.15 384.98 71.85 385.28 71.55C385.43 71.4 385.58 71.4 386.33 71.85C387.68 72.45 390.23 74.25 391.58 75.3C396.53 79.2 400.13 85.2 401.33 91.35ZM457.554 46.2C457.554 45 458.154 39.6 458.904 35.1C459.054 33.75 459.204 32.55 459.204 32.4C459.204 32.1 459.054 31.8 458.604 31.35C458.154 30.9 457.854 30.6 457.854 30.6C457.704 30.6 457.554 30.75 457.554 30.9C457.254 31.35 457.104 31.2 457.104 30.6C457.104 30 456.804 29.85 456.204 29.85C455.904 29.85 455.604 29.85 455.604 29.85C455.454 29.55 454.854 29.7 453.954 30C453.054 30.45 452.154 31.05 451.704 31.95C451.404 32.7 451.254 32.7 450.804 32.55C450.204 32.25 448.704 31.95 448.104 31.95C447.804 31.95 446.904 32.25 446.304 32.55C445.254 33 444.954 33.15 444.054 34.2C442.704 35.4 441.954 36.75 440.004 40.65C437.754 45 436.104 49.2 434.154 55.2C433.554 57 432.954 58.5 432.954 58.5C432.954 58.5 432.954 58.5 432.804 58.5C432.654 58.5 432.654 57.75 432.654 52.8C432.654 49.65 432.654 46.8 432.654 46.65C432.504 46.2 432.204 45.9 431.604 45.3C430.704 44.4 430.254 43.95 430.104 44.25C430.104 44.25 429.954 44.4 429.804 44.55C429.654 44.7 429.654 44.7 429.504 44.55C429.354 44.4 429.204 44.1 429.204 43.95C429.204 43.65 429.204 43.5 428.754 43.35C428.304 43.2 428.154 43.35 427.854 43.5C427.554 43.8 427.254 43.8 427.254 43.35C427.254 43.05 426.654 43.05 425.604 43.65C424.554 44.1 424.254 44.4 423.954 45C422.904 46.95 422.004 52.8 421.704 59.25C421.554 62.4 421.554 68.25 421.854 71.25C422.304 77.1 423.804 87.15 424.704 90.3C425.904 95.25 428.304 98.85 430.854 99.75C431.304 99.9 431.754 100.05 431.904 100.05C432.204 100.05 432.204 100.05 432.054 99.6C432.054 99.3 432.054 98.85 432.054 98.7C432.204 98.25 432.204 98.25 432.654 98.4C432.954 98.4 433.254 98.4 433.404 98.25C433.704 98.1 433.704 97.95 433.704 95.85C433.854 93.6 434.304 89.25 434.904 86.25C435.954 80.4 437.754 72.9 439.704 66.45C441.954 58.95 445.704 48.45 448.254 42.9C449.154 40.95 449.454 40.5 449.604 40.65C449.754 40.65 449.754 41.25 449.904 41.85C450.204 44.55 451.854 48.15 453.504 49.65C454.104 50.25 455.454 51 456.204 51.15C456.504 51.15 457.104 51.45 457.554 51.6C458.904 51.9 459.504 51.6 458.754 50.85C458.154 50.25 457.554 48 457.554 46.2ZM429.654 51.9C429.204 61.5 429.054 64.8 428.904 70.65C428.904 74.55 428.754 76.5 428.604 76.8C428.604 77.1 428.304 77.25 428.154 76.95C428.154 76.95 428.154 75.3 428.004 73.35C427.854 68.1 428.004 63 428.754 52.05C429.054 48.15 429.204 46.5 429.354 46.35C429.504 46.05 429.954 45.9 429.954 46.2C430.104 46.35 429.954 48.9 429.654 51.9ZM436.404 67.65C434.454 75.6 433.404 80.85 432.804 86.1C432.654 87.15 432.504 88.05 432.504 88.2C432.354 88.5 432.204 88.5 432.054 88.2C431.904 87.45 431.904 85.95 432.804 81.75C433.554 76.95 435.204 70.5 436.404 66.3C437.004 64.5 437.454 63.3 437.454 63.6C437.454 63.6 437.004 65.4 436.404 67.65ZM446.454 34.5C446.154 34.8 446.004 34.95 446.004 34.65C446.004 34.5 446.304 34.2 446.454 34.35V34.5ZM456.204 36.75C455.904 38.25 455.604 40.8 455.454 42.75C455.454 44.7 455.304 45.15 455.004 44.55C454.854 44.4 454.854 43.8 454.854 42.15C454.854 39.9 455.154 37.65 455.604 35.7C455.754 35.1 455.904 34.95 456.054 34.8C456.354 34.8 456.354 34.95 456.354 35.25C456.354 35.55 456.204 36.15 456.204 36.75ZM501.682 67.35C501.382 67.05 501.382 67.2 499.582 67.65C496.582 68.7 491.632 69.9 490.882 69.75C490.582 69.75 490.582 69.75 490.582 62.85C490.432 57.45 490.432 55.8 490.282 54.45C489.682 51.45 489.082 49.5 488.032 47.7C485.182 43.2 479.182 40.05 474.232 40.65C472.432 40.95 470.182 41.85 468.682 43.2C466.732 44.85 464.932 47.7 464.032 50.4C463.282 53.1 463.132 54.15 463.132 57.6L462.982 61.05L462.082 61.95C459.982 63.6 458.932 65.55 457.732 69.15C455.632 75.9 455.482 81.75 457.132 87.3C458.782 92.4 462.082 96.45 466.132 97.95C466.732 98.25 468.082 98.55 468.982 98.7C470.032 98.85 471.382 99.15 471.982 99.45C472.582 99.6 473.332 99.9 473.482 99.9C474.082 100.05 475.882 99.9 476.782 99.75C478.732 99.3 480.832 97.35 482.782 94.2C485.782 89.4 487.732 83.85 489.232 76.35C489.682 74.7 489.982 73.2 489.982 73.05C490.132 72.75 490.582 72.6 491.332 72.45C495.382 71.4 499.432 69.9 501.232 68.55C501.982 67.95 501.982 67.8 501.682 67.35ZM465.832 70.95C465.232 74.55 465.082 76.05 464.932 80.25C464.932 82.65 464.782 84.6 464.782 84.6C464.032 85.2 463.732 75.9 464.332 72.3C464.782 69.45 465.082 68.7 465.382 68.55C465.982 68.55 466.132 69.15 465.832 70.95ZM467.782 56.85C467.632 58.5 467.482 59.85 467.482 60C467.032 60.45 466.582 57.3 466.882 54.75C467.182 52.05 468.232 48.6 469.132 47.55C469.582 47.1 469.582 47.55 468.982 49.35C468.082 52.05 467.782 53.55 467.782 56.85ZM475.882 94.5C475.732 94.65 475.582 94.65 475.582 94.65C475.432 94.65 475.582 94.65 475.882 94.35C476.182 94.2 476.182 94.2 475.882 94.5ZM485.032 73.8C485.032 74.55 483.082 79.65 481.882 82.35C479.482 87.15 475.882 92.4 473.332 94.65C472.732 95.1 472.282 95.4 471.982 95.4C471.682 95.4 471.082 94.35 470.332 92.4C469.582 90.15 469.282 88.95 468.832 85.8C468.532 83.4 468.532 82.65 468.682 78.3C468.832 72.6 468.832 71.85 469.282 71.7C469.432 71.7 470.182 71.85 470.782 72C471.382 72.3 472.882 72.6 473.932 72.75C475.132 72.9 476.632 73.05 477.532 73.2C478.582 73.35 479.932 73.5 481.882 73.5C485.332 73.5 485.032 73.35 485.032 73.8ZM484.432 70.8C482.482 71.1 477.382 71.1 476.182 70.95C474.232 70.65 472.882 69.75 471.682 67.8C470.782 66.15 470.332 64.95 470.332 63.6C470.332 62.4 470.332 62.25 469.732 61.5L469.282 60.9V57.9C469.282 53.55 469.582 51.75 470.932 48.6C471.832 46.8 472.882 45.45 474.232 44.25C476.182 42.6 478.132 42.15 479.782 43.05C480.982 43.65 482.632 45 483.532 46.05C485.032 47.7 486.082 50.1 486.682 52.8C487.132 54.9 487.432 62.1 486.982 64.5C486.682 67.35 486.082 70.2 485.932 70.35C485.782 70.5 485.332 70.65 484.432 70.8ZM487.282 78C487.132 78.45 486.982 78.9 486.982 79.35L486.682 79.95L486.832 79.2C486.832 78.75 486.982 78.15 487.132 77.85L487.432 77.4L487.282 78ZM488.332 73.95C488.332 74.4 488.182 74.85 488.032 75.3L487.732 75.9L487.882 75C488.032 73.8 488.032 73.35 488.332 73.35C488.482 73.35 488.482 73.5 488.332 73.95ZM489.682 66.75C489.532 68.4 489.232 69.75 489.232 69.75C489.082 69.9 488.932 69.9 488.782 69.75C488.632 69.75 488.782 69.3 488.782 68.7C489.232 66.45 489.382 61.35 489.232 58.05C489.232 54.9 489.232 54.75 489.532 55.35C489.982 56.55 489.982 63.3 489.682 66.75ZM576.647 78.9C576.647 78.15 576.647 78 576.347 78C576.197 78 576.047 78 576.047 77.7C576.197 77.25 575.747 77.25 574.847 77.7C574.397 77.85 573.797 78 573.497 78C571.397 78.15 565.697 75.6 562.547 72.9C561.797 72.3 561.347 71.85 561.347 71.7C561.347 71.55 561.497 69.75 561.647 67.8C562.097 59.55 562.247 49.05 561.797 45.45C561.647 44.1 561.347 42.45 560.897 41.85C560.147 40.35 558.797 38.85 557.297 38.1C557.147 37.8 556.397 37.5 555.647 37.35C554.597 37.05 554.597 37.05 553.547 37.2C552.347 37.35 550.697 37.95 549.647 38.55C547.397 40.05 545.147 43.5 544.247 47.1C543.797 48.6 543.497 51.75 543.797 53.25C544.247 57 545.897 61.05 548.297 64.8C549.347 66.45 551.747 69.3 553.247 70.65L554.447 71.85L554.147 72.9C553.547 76.5 551.447 82.65 549.497 86.4C548.747 87.9 547.547 89.85 546.497 91.2C544.547 94.05 541.397 96.75 540.347 96.6C539.597 96.6 537.497 92.55 536.447 88.95C534.797 83.1 533.597 74.1 533.447 65.55L533.297 62.55L532.847 62.1C531.647 60.75 531.047 60.45 530.897 61.2C530.897 61.65 530.747 62.1 530.447 62.1C530.297 62.1 530.147 61.8 530.297 61.05C530.297 60.3 530.147 60.15 529.697 60C529.247 59.85 529.097 59.85 529.097 60.15C528.797 60.3 528.497 60.3 528.497 60C528.347 59.85 528.197 59.85 528.047 59.85C527.747 59.7 526.397 60.3 525.947 60.75L525.497 61.05L525.197 64.5C524.747 67.95 524.447 69.3 523.397 72.9C520.697 81.75 516.647 90.75 513.347 94.95C512.147 96.45 511.997 96.45 511.397 94.95C510.047 91.8 509.447 88.05 509.147 81.45C509.147 80.1 509.147 78.75 509.447 74.7C510.047 67.5 510.947 62.25 512.897 54.3C513.947 49.8 514.247 48.15 514.247 47.55C514.247 46.95 512.747 45 512.447 45.15C512.297 45.45 511.847 45.3 511.847 44.85C511.697 44.25 510.947 43.95 509.297 43.8C508.697 43.65 508.397 43.8 507.497 44.1C505.697 44.7 504.647 45.9 503.147 48.6C499.847 54.6 497.147 64.35 496.397 72.75C495.497 83.4 496.997 90.6 501.647 96C503.747 98.55 505.847 99.75 509.297 100.2C510.047 100.35 511.247 100.65 511.997 100.95C513.947 101.55 515.147 101.55 516.947 100.95C518.747 100.2 520.097 98.85 521.447 96.45C522.797 94.05 523.697 91.95 526.097 85.2C526.247 84.9 526.397 84.6 526.547 84.6C526.697 84.6 526.997 85.35 527.297 86.7C528.797 93.15 531.497 97.5 534.797 99C535.847 99.45 537.497 99.9 538.847 100.05C539.297 100.05 540.347 100.2 541.097 100.5C544.847 101.7 548.747 100.2 552.047 96.45C555.797 91.95 558.647 85.65 560.297 78.3C560.597 76.8 560.747 76.5 560.897 76.5C561.047 76.5 561.947 76.8 562.997 77.25C563.897 77.85 565.397 78.45 566.147 78.6C566.747 78.9 568.097 79.5 568.997 79.8C571.847 81 573.947 81.3 575.447 80.85C576.347 80.55 576.647 80.1 576.647 78.9ZM551.747 39.45C551.747 39.45 551.747 39.6 551.597 39.6C551.297 39.9 551.147 39.9 551.147 39.6C551.147 39.45 551.597 39.15 551.747 39.45ZM550.847 46.8C550.547 47.55 550.247 48.9 550.097 49.8C549.797 52.2 549.497 52.35 549.347 50.25C549.347 48.45 550.097 46.2 550.997 45.15C551.147 44.85 551.147 44.85 551.297 45.15C551.297 45.3 550.997 46.05 550.847 46.8ZM511.097 48.45C511.097 48.75 510.647 50.1 510.197 51.6C506.747 62.55 504.797 74.7 505.397 83.4C505.397 84.6 505.397 85.35 505.247 85.35C505.097 85.5 504.947 85.05 504.647 83.25C503.447 74.25 505.697 60.6 510.047 49.35C510.647 47.7 510.947 47.4 511.247 47.85C511.247 48 511.247 48.15 511.097 48.45ZM532.097 81.6C531.947 82.2 531.197 78 530.747 73.5C530.447 70.65 530.447 70.35 530.747 70.05C531.047 69.6 531.197 70.05 531.347 72.45C531.497 73.8 531.647 76.2 531.947 78C532.097 79.8 532.247 81.45 532.097 81.6ZM555.347 63.3C555.047 63.3 554.897 62.85 553.997 60.9C551.897 55.05 551.897 49.8 554.447 45.3C555.047 44.25 555.497 44.1 555.497 44.85C556.097 48.3 556.247 54.6 555.797 60.3C555.647 63 555.497 63.3 555.347 63.3ZM556.697 82.2C556.697 82.5 556.547 82.65 556.397 82.65C556.397 82.65 556.397 82.35 556.397 82.2C556.847 80.85 558.047 75.6 558.047 75C558.047 75 558.197 75 558.497 75C558.797 75 558.797 75 558.797 75.6C558.647 76.8 557.297 81 556.697 82.2ZM559.847 67.95C559.697 69.45 559.547 69.6 559.397 69.6C559.247 69.6 559.097 69.6 559.097 69.45C559.097 69.3 559.247 66.9 559.397 63.9C559.697 60.9 559.847 57.3 559.997 55.8C560.147 52.95 560.297 53.25 560.297 57C560.297 59.7 559.997 65.85 559.847 67.95ZM618.186 51.9C619.686 50.55 619.686 50.4 619.386 50.4C618.036 50.25 610.386 55.8 604.836 60.9C600.036 65.25 595.386 70.2 590.286 76.35C589.836 76.8 589.386 77.1 589.236 77.1C589.236 77.1 588.336 76.8 587.436 76.5C585.936 76.05 583.986 75.6 578.136 74.25C575.736 73.65 574.986 73.35 574.686 73.05C574.536 72.75 575.136 71.1 576.036 69.45C577.536 66.9 579.336 64.8 582.786 61.5C586.386 57.75 589.086 55.5 592.086 53.1C594.186 51.6 596.886 49.95 597.486 49.8C597.636 49.65 597.936 49.8 598.236 50.1C598.986 51 599.436 50.55 599.436 49.05C599.136 47.25 597.636 45 595.986 44.55C594.786 44.25 592.986 44.1 591.786 44.4C587.586 45.3 580.086 49.65 574.686 54.15C573.036 55.65 569.736 59.1 568.686 60.45C566.286 63.6 565.086 66.75 565.536 69C565.836 71.1 567.036 72.9 569.586 74.7C570.336 75.3 571.386 76.35 571.986 77.1C574.236 79.5 576.936 80.7 582.636 81.6C583.986 81.9 585.036 82.05 585.036 82.2C585.336 82.35 585.186 82.65 583.536 84.6C582.186 86.55 577.986 92.4 576.636 94.5C573.636 98.85 571.986 103.05 571.686 105.75C571.686 106.65 571.686 106.8 571.986 107.55C572.286 108.3 573.186 109.05 574.386 109.8C574.836 110.1 575.736 110.7 576.186 111.15C577.386 112.05 577.536 112.2 578.586 112.35C579.786 112.65 580.386 112.65 581.586 112.5C585.486 111.75 591.186 108.3 595.686 103.8C598.386 101.1 600.186 98.4 601.086 95.7C601.536 94.5 601.536 94.05 601.686 92.7C601.686 91.2 601.686 90.75 601.386 89.85C600.486 86.1 598.386 82.95 595.386 80.7C594.786 80.25 594.336 79.8 594.336 79.65C594.336 79.65 594.786 78.9 595.386 78.3C595.986 77.55 597.036 76.2 597.786 75.45C598.386 74.55 599.736 72.9 600.786 71.7C601.836 70.5 603.486 68.55 604.536 67.35C607.836 63.3 613.836 56.85 617.136 53.85C618.186 52.8 618.936 52.05 618.936 51.9C618.936 51.9 618.336 52.2 617.736 52.65C617.136 52.95 616.686 53.25 616.686 53.25C616.536 53.25 617.286 52.65 618.186 51.9ZM572.886 68.55C572.136 69.15 572.436 67.95 573.336 66.15C574.386 63.75 578.586 59.25 582.636 56.1C584.136 54.75 586.086 53.4 586.086 53.55C586.236 53.55 585.636 54.15 582.936 56.55C579.036 60 575.736 63.9 573.636 67.35C573.336 67.95 573.036 68.55 572.886 68.55ZM576.786 103.5C576.486 104.25 576.186 105 576.186 105.15C575.736 105.45 575.886 104.4 576.186 103.2C577.236 100.05 579.786 95.55 584.436 89.25C588.036 84.15 588.936 83.1 589.086 83.1C589.236 83.1 589.386 83.1 589.386 83.1C589.386 83.25 588.636 84.45 587.586 85.8C581.586 93.75 578.736 98.55 576.786 103.5ZM597.786 95.4C598.236 94.65 598.686 93.9 598.836 93.75C599.136 93.45 599.136 93.9 598.986 94.8C598.386 96.45 597.036 98.4 595.536 100.05C594.786 100.95 594.036 101.4 594.036 101.25C594.036 101.1 594.336 100.8 594.486 100.5C595.686 98.85 597.036 96.6 597.786 95.4ZM594.636 85.5C594.936 86.55 594.936 88.2 594.636 89.55C594.486 90.15 594.036 91.5 593.586 92.4C591.036 97.5 585.636 102.9 579.486 106.35C577.986 107.25 577.536 107.25 577.536 106.65C577.536 106.2 578.736 103.2 579.336 101.7C580.086 99.9 582.186 96.3 583.986 93.6C585.486 91.2 590.436 84.45 591.036 83.85L591.336 83.4L592.536 83.85C594.186 84.45 594.486 84.6 594.636 85.5ZM610.836 58.65C609.036 60.6 605.286 64.5 603.486 66.45C602.736 67.35 601.686 68.55 601.086 69.15C600.486 69.75 598.536 72.15 596.586 74.55C594.636 76.8 592.986 78.75 592.986 78.75C592.536 78.75 592.986 78.15 594.936 75.75C597.486 72.6 598.236 71.7 599.586 70.2C600.186 69.6 601.686 67.95 602.736 66.75C605.136 64.05 612.036 57 612.186 57.15C612.186 57.3 611.586 57.9 610.836 58.65ZM613.686 55.95C613.386 56.1 613.236 56.25 613.236 56.25C613.236 56.25 613.386 56.1 613.536 55.95C613.686 55.8 613.836 55.65 613.836 55.65C613.986 55.65 613.836 55.8 613.686 55.95ZM649.993 67.05L649.843 67.5L649.543 67.95V66.75C649.693 65.7 649.693 65.55 649.393 65.55C649.243 65.55 649.093 65.85 648.643 66.6C645.943 72.6 642.943 77.7 638.443 84C632.893 91.8 627.943 96.45 624.043 97.5C622.843 97.95 622.393 97.8 621.943 97.35C621.043 96.15 619.993 93.3 619.393 90.6C619.093 88.65 618.943 82.95 619.243 80.4C619.393 79.35 619.543 78.45 619.693 78.3C619.843 77.85 620.293 78 621.193 78.6C623.143 80.1 624.643 80.55 625.993 80.4C627.043 80.25 627.493 79.95 628.993 78.45C631.693 75.9 633.343 72.9 635.293 66.45C636.343 63.6 637.243 60.15 637.543 58.35C637.993 55.2 637.843 51.15 637.243 49.95C636.643 48.6 634.243 46.5 632.743 45.75C630.793 45 628.543 45 626.593 45.6C624.943 46.2 622.843 47.1 621.493 48C613.993 52.35 610.093 58.95 608.743 70.2C608.143 74.55 607.993 81.75 608.443 84.6C609.193 90 611.893 95.25 615.343 97.8C617.143 99.15 618.793 99.9 621.043 100.05C621.793 100.2 622.693 100.35 623.143 100.35C624.193 100.65 626.143 100.65 627.493 100.35C630.493 99.6 633.643 97.5 636.343 94.2C641.443 88.35 645.943 81.15 648.043 75.75C649.243 72.75 650.143 69.15 650.143 67.65L649.993 67.05ZM632.443 66.15C633.943 61.5 634.543 59.25 634.843 56.25C634.993 54.75 635.143 53.55 635.293 53.25C635.293 52.95 635.293 52.95 635.593 53.25C635.743 53.4 635.743 53.85 635.593 55.65C635.593 57.45 635.593 58.05 635.143 59.7C634.543 62.1 633.343 65.55 632.443 67.65C631.843 69.3 631.243 70.35 631.243 69.9C631.243 69.75 631.843 68.1 632.443 66.15ZM628.843 54.15C630.343 52.2 630.493 52.35 630.493 54.3C630.643 56.7 629.893 59.7 628.243 64.5C626.893 67.95 626.143 70.05 624.943 72.45C623.593 75 622.993 75.9 622.093 76.35C621.343 76.8 621.193 76.8 620.593 76.35L619.993 75.75L620.293 74.1C621.943 65.55 624.643 59.25 628.843 54.15ZM619.993 51.75C620.593 50.85 622.393 49.65 622.393 50.1C622.393 50.25 621.043 51.6 620.293 52.05C619.543 52.65 619.393 52.5 619.993 51.75ZM616.243 77.25C615.793 81.15 615.793 82.8 615.943 85.2C616.093 86.55 616.093 87.9 616.093 88.2C616.243 89.1 615.793 88.95 615.643 88.05C615.343 87.15 615.043 85.05 614.893 83.25C614.743 81.45 615.493 74.1 616.243 70.8C616.993 66.75 618.943 61.2 619.393 61.5C619.543 61.5 619.393 62.1 618.793 64.5C617.593 68.25 616.843 72.3 616.243 77.25Z" fill="#40916C"/>
<g clip-path="url(#clip0)">
<path d="M753.843 15.2922C753.52 14.5102 752.757 14.0002 751.911 14C670.784 14 662.002 47.6303 662.002 62.0909C662.002 80.8505 676.287 93.4545 697.547 93.4545C724.399 93.4545 730.023 67.9035 733.043 54.1747C735.978 40.1998 743.069 27.4389 753.387 17.567C753.984 16.9703 754.164 16.0729 753.843 15.2922Z" fill="#40916C"/>
<path d="M664.092 106C662.937 106 662.001 105.064 662.001 103.909C662.001 91.4765 683.558 51.586 717.544 35.1181C718.583 34.6147 719.834 35.0489 720.337 36.0883C720.841 37.1276 720.406 38.3782 719.367 38.8818C685.047 55.5129 666.183 94.1363 666.183 103.909C666.183 105.064 665.247 106 664.092 106Z" fill="#257751"/>
</g>
<defs>
<clipPath id="clip0">
<rect width="92" height="92" fill="white" transform="translate(662 14)"/>
</clipPath>
</defs>
</svg>
